<svg xmlns="http://www.w3.org/2000/svg" viewBox="0 0 64 64" role="img" aria-labelledby="icon-nutrition-title">
  <title id="icon-nutrition-title">Nutrition icon</title>
  <rect width="64" height="64" rx="12" fill="#14532D" />
  <path d="M24 20C21 20 18.5 22.5 18.5 25.5C18.5 32 23 39 32 44C41 39 45.5 32 45.5 25.5C45.5 22.5 43 20 40 20C36.5 20 34 22.5 32 25C30 22.5 27.5 20 24 20Z" fill="#F97316" />
  <path d="M32 24C33.5 21 36 18.5 39 18.5C42.5 18.5 45.5 21 45.5 24.5" stroke="#FCD34D" stroke-width="2" stroke-linecap="round" fill="none" />
  <path d="M24.5 17C24.5 14.2 26.7 12 29.5 12C31.3 12 32.8 12.9 33.7 14.3" stroke="#F5F3FF" stroke-width="2" stroke-linecap="round" fill="none" />
  <path d="M23 18C20 18 17 21 17 24C17 26.5 19 28.5 21.5 28.5" stroke="#86EFAC" stroke-width="2" stroke-linecap="round" fill="none" />
</svg>
